<svg xmlns="http://www.w3.org/2000/svg" width="56" height="56" viewBox="0 0 56 56"><defs><style>.a{fill:#4b4b4b;stroke:#fff;stroke-width:3px;}.b{fill:#fff;}.c{stroke:none;}.d{fill:none;}</style></defs><g transform="translate(3 3)"><g class="a" transform="translate(0)"><circle class="c" cx="25" cy="25" r="25"/><circle class="d" cx="25" cy="25" r="26.5"/></g><path class="b" d="M15.311,11.962a4.977,4.977,0,0,0,3.022,4.556,12.322,12.322,0,0,1-1.558,3.2c-.938,1.372-1.912,2.738-3.447,2.766-1.508.028-1.992-.894-3.716-.894s-2.262.866-3.689.922c-1.481.056-2.609-1.483-3.555-2.85C.435,16.869-1.043,11.765.942,8.32A5.512,5.512,0,0,1,5.6,5.5c1.454-.028,2.827.978,3.716.978s2.557-1.21,4.31-1.032a5.26,5.26,0,0,1,4.118,2.233,5.092,5.092,0,0,0-2.433,4.284M12.478,3.595A4.959,4.959,0,0,0,13.649,0a5.047,5.047,0,0,0-3.317,1.706A4.712,4.712,0,0,0,9.138,5.189a4.176,4.176,0,0,0,3.34-1.594" transform="translate(15.833 13.333)"/></g></svg>