<svg xmlns="http://www.w3.org/2000/svg" width="56" height="56" viewBox="0 0 56 56"><defs><style>.a{fill:#1ba8e0;stroke:#fff;stroke-width:3px;}.b{fill:#fff;}.c{stroke:none;}.d{fill:none;}</style></defs><g transform="translate(3 3)"><g class="a"><circle class="c" cx="25" cy="25" r="25"/><circle class="d" cx="25" cy="25" r="26.5"/></g><g transform="translate(11.667 11.667)"><path class="b" d="M5146.888-2575.217a13.315,13.315,0,0,0,8.176,2.8,13.278,13.278,0,0,0,8.782-3.3c.029-.024.015-.041-.014-.024a16.192,16.192,0,0,1-8.768,2.236,16.683,16.683,0,0,1-8.159-1.733c-.026-.014-.037.007-.017.024m9.081.681c3.279,0,6.885-.894,9.041-2.664a7.208,7.208,0,0,0,1.656-1.987,13.091,13.091,0,0,0,.805-1.666c.008-.029-.008-.043-.029-.01-2,2.951-7.811,4.79-13.808,4.79-4.236,0-8.8-1.354-10.582-3.942-.017-.022-.035-.013-.028.015,1.667,3.534,6.711,5.464,12.944,5.464m-3.586-5.863c-6.824,0-10.042-3.178-10.627-5.347-.007-.031-.028-.024-.028,0a13.2,13.2,0,0,0,.2,2.3,2.741,2.741,0,0,0,.671,1.163c1.655,1.723,5.776,4.135,12.91,4.135,9.718,0,11.94-3.237,12.4-4.3a9.762,9.762,0,0,0,.494-3.292c0-.282-.009-.5-.019-.724,0-.035-.021-.037-.028,0-.486,2.6-8.791,6.069-15.967,6.069m-9.365-11.061a13.251,13.251,0,0,0-.955,2.763.889.889,0,0,0,.068.647c.819,1.734,4.956,4.512,14.6,4.512,5.887,0,10.458-1.448,11.2-4.088a3.136,3.136,0,0,0-.029-1.689,13.083,13.083,0,0,0-.875-2.305c-.009-.022-.027-.018-.024.006.115,3.462-9.539,5.694-14.408,5.694-5.278,0-9.68-2.1-9.68-4.759a3.094,3.094,0,0,1,.121-.774c0-.025-.017-.029-.024-.007m20.85-4.25a.547.547,0,0,1,.085.307c0,1.48-4.534,4.1-11.745,4.1-5.3,0-6.294-1.967-6.294-3.218a2.166,2.166,0,0,1,.548-1.369c.021-.027,0-.038-.02-.018a13.35,13.35,0,0,0-1.876,1.95,1.708,1.708,0,0,0-.432.811c0,2.59,6.5,4.469,12.574,4.469,6.476,0,9.364-2.112,9.364-3.97,0-.665-.258-1.051-.918-1.8a15.575,15.575,0,0,0-1.265-1.278c-.021-.017-.036,0-.021.018m-1.986-1.48a13.179,13.179,0,0,0-6.818-1.879,13.24,13.24,0,0,0-6.915,1.935c-.6.37-.94.667-.94,1.048,0,1.124,2.627,2.333,7.288,2.333,4.61,0,8.19-1.323,8.19-2.6,0-.3-.266-.515-.805-.837" transform="translate(-5141.728 2599.07)"/></g></g></svg>