<svg xmlns="http://www.w3.org/2000/svg" width="22" height="22" viewBox="0 0 22 22"><defs><style>.a{fill:#637dff;}</style></defs><g transform="translate(-442.35 -254)"><path class="a" d="M276.369,64.555l-2.734-2.734-5.092,5.134,2.735,2.735Zm0,0" transform="translate(185.324 194.836)"/><path class="a" d="M210.383,209.357a.645.645,0,0,0,.844.843l3.273-1.693-2.425-2.425Zm0,0" transform="translate(241.035 56.773)"/><path class="a" d="M412.544,2.923a.644.644,0,0,0,0-.912L410.721.189a.644.644,0,0,0-.912,0l-1.556,1.556,2.734,2.734Zm0,0" transform="translate(51.617 254)"/><path class="a" d="M2.433,133.89h.645v3.266a.645.645,0,0,0,1.1.456L7.9,133.89h7.51a1.936,1.936,0,0,0,1.934-1.934v-6.4L15.31,127.59a1.916,1.916,0,0,1-.617.415L11,129.918a2.035,2.035,0,0,1-.844.2,1.9,1.9,0,0,1-.556-.091H5.011a.645.645,0,0,1,0-1.289H8.275a1.93,1.93,0,0,1,.1-1.3l1.989-3.863a1.762,1.762,0,0,1,.373-.527L12.786,121H2.433A1.936,1.936,0,0,0,.5,122.933v9.023a1.936,1.936,0,0,0,1.934,1.934Zm0,0" transform="translate(441.85 138.2)"/></g></svg>