<svg xmlns="http://www.w3.org/2000/svg" width="142.543" height="161.749" viewBox="0 0 142.543 161.749"><defs><style>.a,.d,.e{opacity:0.7;}.b,.c,.d{fill:none;}.b{stroke:#58cff5;stroke-width:2px;}.b,.d{stroke-linecap:round;stroke-linejoin:round;}.c{stroke:#9cdef3;stroke-miterlimit:10;}.d{stroke:#ffd940;stroke-width:3px;}.e{fill:#f6b2b2;}.f{fill:#e5e5e5;}</style></defs><g transform="translate(-2435 -4616.251)"><g class="a" transform="translate(2443.726 4617.772)"><rect class="b" width="11.646" height="11.646" transform="translate(0)"/><rect class="c" width="11.646" height="11.646" transform="translate(8.395 4.915)"/></g><path class="d" d="M3.536,3.534,0,.218,3.536,3.534,6.85,0,3.536,3.534,7.07,6.849,3.536,3.534.219,7.07Z" transform="translate(2527.541 4617.751)"/><path class="e" d="M922.494,367.425a4,4,0,1,1-4-4A4,4,0,0,1,922.494,367.425Z" transform="translate(1655.049 4288.662)"/><g transform="translate(1729.85 4258.969)"><circle class="f" cx="2" cy="2" r="2" transform="translate(705.15 401.031)"/><circle class="f" cx="2" cy="2" r="2" transform="translate(724.15 401.031)"/><circle class="f" cx="2" cy="2" r="2" transform="translate(743.15 401.031)"/><circle class="f" cx="2" cy="2" r="2" transform="translate(762.15 401.031)"/><circle class="f" cx="2" cy="2" r="2" transform="translate(781.15 401.031)"/><circle class="f" cx="2" cy="2" r="2" transform="translate(800.15 401.031)"/><circle class="f" cx="2" cy="2" r="2" transform="translate(819.15 401.031)"/><circle class="f" cx="2" cy="2" r="2" transform="translate(705.15 420.031)"/><circle class="f" cx="2" cy="2" r="2" transform="translate(724.15 420.031)"/><circle class="f" cx="2" cy="2" r="2" transform="translate(743.15 420.031)"/><circle class="f" cx="2" cy="2" r="2" transform="translate(762.15 420.031)"/><circle class="f" cx="2" cy="2" r="2" transform="translate(781.15 420.031)"/><circle class="f" cx="2" cy="2" r="2" transform="translate(800.15 420.031)"/><circle class="f" cx="2" cy="2" r="2" transform="translate(819.15 420.031)"/><circle class="f" cx="2" cy="2" r="2" transform="translate(705.15 439.031)"/><circle class="f" cx="2" cy="2" r="2" transform="translate(724.15 439.031)"/><circle class="f" cx="2" cy="2" r="2" transform="translate(743.15 439.031)"/><circle class="f" cx="2" cy="2" r="2" transform="translate(762.15 439.031)"/><circle class="f" cx="2" cy="2" r="2" transform="translate(781.15 439.031)"/><circle class="f" cx="2" cy="2" r="2" transform="translate(800.15 439.031)"/><circle class="f" cx="2" cy="2" r="2" transform="translate(819.15 439.031)"/><circle class="f" cx="2" cy="2" r="2" transform="translate(705.15 458.031)"/><circle class="f" cx="2" cy="2" r="2" transform="translate(724.15 458.031)"/><circle class="f" cx="2" cy="2" r="2" transform="translate(743.15 458.031)"/><circle class="f" cx="2" cy="2" r="2" transform="translate(762.15 458.031)"/><circle class="f" cx="2" cy="2" r="2" transform="translate(781.15 458.031)"/><circle class="f" cx="2" cy="2" r="2" transform="translate(800.15 458.031)"/><circle class="f" cx="2" cy="2" r="2" transform="translate(819.15 458.031)"/><circle class="f" cx="2" cy="2" r="2" transform="translate(705.15 477.031)"/><circle class="f" cx="2" cy="2" r="2" transform="translate(724.15 477.031)"/><circle class="f" cx="2" cy="2" r="2" transform="translate(743.15 477.031)"/><circle class="f" cx="2" cy="2" r="2" transform="translate(762.15 477.031)"/><circle class="f" cx="2" cy="2" r="2" transform="translate(781.15 477.031)"/><circle class="f" cx="2" cy="2" r="2" transform="translate(800.15 477.031)"/><circle class="f" cx="2" cy="2" r="2" transform="translate(819.15 477.031)"/><circle class="f" cx="2" cy="2" r="2" transform="translate(705.15 496.031)"/><circle class="f" cx="2" cy="2" r="2" transform="translate(724.15 496.031)"/><circle class="f" cx="2" cy="2" r="2" transform="translate(743.15 496.031)"/><circle class="f" cx="2" cy="2" r="2" transform="translate(762.15 496.031)"/><circle class="f" cx="2" cy="2" r="2" transform="translate(781.15 496.031)"/><circle class="f" cx="2" cy="2" r="2" transform="translate(800.15 496.031)"/><circle class="f" cx="2" cy="2" r="2" transform="translate(819.15 496.031)"/><circle class="f" cx="2" cy="2" r="2" transform="translate(705.15 515.031)"/><circle class="f" cx="2" cy="2" r="2" transform="translate(724.15 515.031)"/><circle class="f" cx="2" cy="2" r="2" transform="translate(743.15 515.031)"/><circle class="f" cx="2" cy="2" r="2" transform="translate(762.15 515.031)"/><circle class="f" cx="2" cy="2" r="2" transform="translate(781.15 515.031)"/><circle class="f" cx="2" cy="2" r="2" transform="translate(800.15 515.031)"/><circle class="f" cx="2" cy="2" r="2" transform="translate(819.15 515.031)"/></g></g></svg>