<svg xmlns="http://www.w3.org/2000/svg" width="142.653" height="108.94" viewBox="0 0 142.653 108.94"><defs><style>.a,.b,.c,.d{fill:none;stroke-linecap:round;stroke-linejoin:round;stroke-width:3px;opacity:0.7;}.a{stroke:#f6b2b2;}.b{stroke:#aedeff;}.c{stroke:#fce185;}.d{stroke:#6ae1c5;}</style></defs><g transform="translate(-3647.855 -4600.587)"><path class="a" d="M11.57,6.682,7.707,0,3.855,6.686,0,13.373l7.716-.006,7.718,0Z" transform="matrix(0.914, 0.407, -0.407, 0.914, 3697.488, 4651.001)"/><path class="b" d="M926.2,369.28a5.855,5.855,0,1,1-5.854-5.855A5.855,5.855,0,0,1,926.2,369.28Z" transform="translate(2825.049 4238.662)"/><path class="c" d="M737.2,560.771a5.855,5.855,0,1,1,11.71,0" transform="translate(3040.102 4143.693)"/><path class="d" d="M2.662,18.235,0,21.393C0,19.574,1.417,18.913,2.662,18.235Zm1.846-2.19-1.846-2.19c.976.531,1.846,1.073,1.846,2.19s-.87,1.659-1.846,2.19ZM0,10.7l2.662,3.158C1.417,13.176,0,12.515,0,10.7ZM2.663,7.538,0,10.7C0,8.878,1.417,8.216,2.663,7.538Zm1.846-2.19L2.663,3.159c.976.531,1.846,1.073,1.846,2.19s-.87,1.658-1.846,2.19ZM0,0,2.663,3.159C1.417,2.48,0,1.819,0,0Z" transform="translate(3649.728 4687.196) rotate(-17)"/></g></svg>