<svg xmlns="http://www.w3.org/2000/svg" width="56" height="56" viewBox="0 0 56 56"><defs><style>.a{fill:#4285f4;stroke:#fff;stroke-width:3px;}.b{fill:#fff;}.c{stroke:none;}.d{fill:none;}</style></defs><g transform="translate(3 3)"><g class="a"><circle class="c" cx="25" cy="25" r="25"/><circle class="d" cx="25" cy="25" r="26.5"/></g><g transform="translate(15.833 15.833)"><path class="b" d="M139.53,108.673a8.015,8.015,0,0,0-.2-1.912H130.55v3.471H135.7a4.571,4.571,0,0,1-1.912,3.035l-.018.116,2.777,2.151.192.019a9.146,9.146,0,0,0,2.785-6.88" transform="translate(-121.196 -99.112)"/><path class="b" d="M22.281,163.874a8.916,8.916,0,0,0,6.194-2.266l-2.952-2.287a5.536,5.536,0,0,1-3.243.935,5.631,5.631,0,0,1-5.321-3.887l-.11.009-2.887,2.234-.038.1a9.347,9.347,0,0,0,8.356,5.155" transform="translate(-12.927 -145.166)"/><path class="b" d="M4.032,77.406a5.759,5.759,0,0,1-.312-1.85,6.051,6.051,0,0,1,.3-1.85l-.005-.124-2.923-2.27-.1.045a9.334,9.334,0,0,0,0,8.4l3.035-2.349" transform="translate(0 -66.203)"/><path class="b" d="M22.281,3.617A5.184,5.184,0,0,1,25.9,5.009l2.64-2.577A8.987,8.987,0,0,0,22.281,0a9.347,9.347,0,0,0-8.356,5.155L16.949,7.5a5.654,5.654,0,0,1,5.332-3.887" transform="translate(-12.927 0)"/></g></g></svg>