<svg xmlns="http://www.w3.org/2000/svg" width="56" height="56" viewBox="0 0 56 56"><defs><style>.a{fill:#1796d6;stroke:#fff;stroke-width:3px;}.b{fill:#fff;}.c{stroke:none;}.d{fill:none;}</style></defs><g transform="translate(3 3)"><g class="a"><circle class="c" cx="25" cy="25" r="25"/><circle class="d" cx="25" cy="25" r="26.5"/></g><g transform="translate(11.75 11.667)"><g transform="translate(0 0)"><g transform="translate(0)"><path class="b" d="M-73.133-36.567A13.333,13.333,0,0,0-86.466-49.9c-.2,0-.4.005-.6.014l-2.727,7.5h2.375a1.687,1.687,0,0,1,1.691,2.417l-3.364,9.245h-2.825l3.61-9.909h-2.124l-3.61,9.909h-2.826L-92.62-42.39h0l2.553-7.018A13.339,13.339,0,0,0-99.8-36.567,13.338,13.338,0,0,0-89.562-23.6l2.474-6.8h0L-82.72-42.39h5.2a1.687,1.687,0,0,1,1.692,2.417l-2.956,8.12a1.838,1.838,0,0,1-1.606,1.125h-3.75l-2.725,7.489c.131,0,.264.006.4.006A13.333,13.333,0,0,0-73.133-36.567" transform="translate(99.8 49.9)"/></g><g transform="translate(16.305 9.255)"><path class="b" d="M-13.976,0H-16.1l-2.973,8.158h2.123L-13.976,0" transform="translate(19.072)"/></g></g></g></g></svg>