<svg xmlns="http://www.w3.org/2000/svg" width="32" height="32" viewBox="0 0 32 32"><defs><style>.a{fill:#969696;}.b{fill:#f1f1f1;}</style></defs><g transform="translate(-1568 -2215)"><circle class="a" cx="16" cy="16" r="16" transform="translate(1568 2215)"/><path class="b" d="M16.564,4.175,18,2.8V2.5H13.025L9.478,11.326,5.444,2.5H.227v.3l1.678,2.02a.7.7,0,0,1,.227.587v7.937a.905.905,0,0,1-.242.787L0,16.423v.3H5.359v-.3l-1.89-2.287a.933.933,0,0,1-.26-.787V6.48l4.7,10.244h.547L12.5,6.48V14.64c0,.215,0,.26-.141.4l-1.455,1.408v.3h7.059v-.3l-1.4-1.373a.417.417,0,0,1-.16-.4V4.575a.415.415,0,0,1,.16-.4Z" transform="translate(1575 2221.5)"/></g></svg>