<svg xmlns="http://www.w3.org/2000/svg" width="32" height="32" viewBox="0 0 32 32"><defs><style>.a{fill:#969696;fill-rule:evenodd;}</style></defs><path class="a" d="M1126,6026a16,16,0,1,0,15.991,16A16,16,0,0,0,1126,6026Zm7.138,12.338c0,.16.009.32.009.48a10.476,10.476,0,0,1-16.125,8.818,7.57,7.57,0,0,0,.88.053,7.4,7.4,0,0,0,4.578-1.573,3.691,3.691,0,0,1-3.44-2.561,3.515,3.515,0,0,0,.693.062,3.907,3.907,0,0,0,.969-.124,3.681,3.681,0,0,1-2.951-3.609v-.044a3.6,3.6,0,0,0,1.662.453,3.688,3.688,0,0,1-1.138-4.915,10.436,10.436,0,0,0,7.591,3.848,3.683,3.683,0,0,1,6.267-3.359,7.427,7.427,0,0,0,2.347-.889,3.67,3.67,0,0,1-1.626,2.035,7.337,7.337,0,0,0,2.115-.577,7.3,7.3,0,0,1-1.831,1.9Z" transform="translate(-1109.99 -6026)"/></svg>