<svg xmlns="http://www.w3.org/2000/svg" xmlns:xlink="http://www.w3.org/1999/xlink" width="148.5" height="44" viewBox="0 0 148.5 44"><defs><style>.a,.b,.i{fill:#fff;}.a{stroke:#fff;stroke-miterlimit:10;stroke-width:0.2px;}.c{fill:url(#a);}.d{fill:url(#b);}.e{fill:url(#c);}.f{fill:url(#d);}.g{opacity:0.2;}.g,.h,.i{isolation:isolate;}.h{opacity:0.12;}.i{opacity:0.25;}</style><linearGradient id="a" x1="0.915" y1="6.614" x2="-0.383" y2="5.945" gradientUnits="objectBoundingBox"><stop offset="0" stop-color="#00a0ff"/><stop offset="0.007" stop-color="#00a1ff"/><stop offset="0.26" stop-color="#00beff"/><stop offset="0.512" stop-color="#00d2ff"/><stop offset="0.76" stop-color="#00dfff"/><stop offset="1" stop-color="#00e3ff"/></linearGradient><linearGradient id="b" x1="1.076" y1="17.098" x2="-1.305" y2="17.098" gradientUnits="objectBoundingBox"><stop offset="0" stop-color="#ffe000"/><stop offset="0.409" stop-color="#ffbd00"/><stop offset="0.775" stop-color="orange"/><stop offset="1" stop-color="#ff9c00"/></linearGradient><linearGradient id="c" x1="0.862" y1="10.863" x2="-0.501" y2="9.093" gradientUnits="objectBoundingBox"><stop offset="0" stop-color="#ff3a44"/><stop offset="1" stop-color="#c31162"/></linearGradient><linearGradient id="d" x1="-0.188" y1="13.583" x2="0.421" y2="12.793" gradientUnits="objectBoundingBox"><stop offset="0" stop-color="#32a071"/><stop offset="0.068" stop-color="#2da771"/><stop offset="0.476" stop-color="#15cf74"/><stop offset="0.801" stop-color="#06e775"/><stop offset="1" stop-color="#00f076"/></linearGradient></defs><g transform="translate(-10 -11)"><rect width="148.5" height="44" rx="5" transform="translate(10 11)"/><g transform="translate(55.487 17.553)"><path class="a" d="M58.025,20.581a2.979,2.979,0,0,1-.819,2.2,3.2,3.2,0,0,1-2.424.977,3.4,3.4,0,0,1-3.429-3.447,3.4,3.4,0,0,1,3.429-3.447,3.417,3.417,0,0,1,1.355.276,2.715,2.715,0,0,1,1.032.738l-.58.58a2.232,2.232,0,0,0-1.807-.782,2.552,2.552,0,0,0-2.563,2.636,2.6,2.6,0,0,0,4.407,1.9,2.081,2.081,0,0,0,.553-1.338h-2.4v-.792h3.2A2.812,2.812,0,0,1,58.025,20.581Z" transform="translate(-51.352 -16.866)"/><path class="a" d="M62.378,17.811H59.372V19.9h2.71V20.7h-2.71v2.093h3.006V23.6H58.525V17h3.853Z" transform="translate(-50.635 -16.853)"/><path class="a" d="M65.524,23.6h-.849V17.811H62.832V17h4.535v.811H65.524Z" transform="translate(-50.204 -16.853)"/><path class="a" d="M69.938,23.6V17h.847v6.6Z" transform="translate(-49.493 -16.853)"/><path class="a" d="M74.373,23.6h-.848V17.811H71.681V17h4.535v.811H74.373Z" transform="translate(-49.319 -16.853)"/><path class="a" d="M84.137,22.761a3.427,3.427,0,0,1-4.839,0,3.566,3.566,0,0,1,0-4.895,3.416,3.416,0,0,1,4.835,0,3.555,3.555,0,0,1,0,4.891Zm-4.213-.553a2.539,2.539,0,0,0,3.586,0,2.812,2.812,0,0,0,0-3.788,2.539,2.539,0,0,0-3.586,0,2.815,2.815,0,0,0,0,3.788Z" transform="translate(-48.655 -16.866)"/><path class="a" d="M85.575,23.6V17h1.033l3.208,5.134h.036l-.036-1.272V17h.848v6.6h-.884l-3.356-5.383h-.036l.036,1.273V23.6Z" transform="translate(-47.93 -16.853)"/></g><path class="b" d="M80.845,32.222a4.678,4.678,0,1,0,4.7,4.678A4.611,4.611,0,0,0,80.845,32.222Zm0,7.513a2.842,2.842,0,1,1,2.64-2.835A2.707,2.707,0,0,1,80.845,39.735ZM70.6,32.222A4.678,4.678,0,1,0,75.3,36.9,4.611,4.611,0,0,0,70.6,32.222Zm0,7.513a2.842,2.842,0,1,1,2.64-2.835A2.707,2.707,0,0,1,70.6,39.735ZM58.414,33.658v1.984h4.749a4.142,4.142,0,0,1-1.08,2.5,4.863,4.863,0,0,1-3.668,1.453,5.281,5.281,0,0,1,0-10.561,5.06,5.06,0,0,1,3.579,1.418l1.4-1.4a6.925,6.925,0,0,0-4.98-2,7.267,7.267,0,1,0,0,14.532,6.64,6.64,0,0,0,5.068-2.038A6.558,6.558,0,0,0,65.2,34.9a6.412,6.412,0,0,0-.107-1.24ZM108.253,35.2a4.348,4.348,0,0,0-4.005-2.977A4.445,4.445,0,0,0,99.836,36.9a4.578,4.578,0,0,0,4.643,4.678,4.653,4.653,0,0,0,3.9-2.073l-1.6-1.064a2.673,2.673,0,0,1-2.3,1.294,2.381,2.381,0,0,1-2.269-1.417l6.256-2.588Zm-6.38,1.56a2.567,2.567,0,0,1,2.445-2.729,1.81,1.81,0,0,1,1.737.992ZM96.788,41.3h2.055V27.543H96.788Zm-3.368-8.028h-.07a3.243,3.243,0,0,0-2.463-1.045,4.683,4.683,0,0,0,0,9.357,3.187,3.187,0,0,0,2.463-1.064h.07v.674c0,1.79-.956,2.747-2.5,2.747a2.589,2.589,0,0,1-2.357-1.666l-1.79.745a4.458,4.458,0,0,0,4.147,2.764c2.41,0,4.448-1.418,4.448-4.873v-8.4h-1.95Zm-2.356,6.468a2.845,2.845,0,0,1,0-5.67,2.636,2.636,0,0,1,2.5,2.853A2.613,2.613,0,0,1,91.063,39.735Zm26.819-12.191h-4.918V41.3h2.051v-5.21h2.867a4.277,4.277,0,1,0,0-8.541Zm.053,6.627h-2.919V29.458h2.919a2.357,2.357,0,1,1,0,4.713ZM130.62,32.2a3.855,3.855,0,0,0-3.663,2.1l1.823.761a1.944,1.944,0,0,1,1.875-1.009,1.976,1.976,0,0,1,2.158,1.77v.141a4.54,4.54,0,0,0-2.141-.53c-1.964,0-3.963,1.079-3.963,3.1a3.178,3.178,0,0,0,3.414,3.026,2.9,2.9,0,0,0,2.619-1.345h.07v1.061h1.981V36C134.795,33.559,132.973,32.2,130.62,32.2Zm-.248,7.536c-.673,0-1.61-.335-1.61-1.167,0-1.061,1.167-1.469,2.176-1.469a3.662,3.662,0,0,1,1.875.46A2.488,2.488,0,0,1,130.373,39.733Zm11.64-7.236-2.353,5.962h-.07L137.148,32.5h-2.211L138.6,40.83l-2.088,4.635h2.141L144.3,32.5Zm-18.488,8.8h2.053V27.544h-2.053Z" transform="translate(4.104 1.705)"/><g transform="translate(20.97 17.855)"><path class="c" d="M20.481,17.545a2.208,2.208,0,0,0-.508,1.545V43.418a2.206,2.206,0,0,0,.508,1.545l.081.079L34.19,31.415v-.321L20.563,17.465Z" transform="translate(-19.973 -17.108)"/><path class="d" d="M37.441,35.134,32.9,30.589v-.321l4.544-4.544.1.059,5.382,3.058c1.537.873,1.537,2.3,0,3.176l-5.382,3.058Z" transform="translate(-18.681 -16.282)"/><path class="e" d="M38.791,34.647,34.144,30,20.435,43.71a1.79,1.79,0,0,0,2.287.067l16.069-9.13" transform="translate(-19.927 -15.854)"/><path class="f" d="M38.791,26.641l-16.069-9.13a1.79,1.79,0,0,0-2.287.067L34.144,31.287Z" transform="translate(-19.927 -17.14)"/><g transform="translate(0 18.691)"><path class="g" d="M38.688,34.132,22.722,43.2a1.832,1.832,0,0,1-2.2.012h0l-.083.081h0l.081.08h0a1.832,1.832,0,0,0,2.2-.012l16.069-9.13Z" transform="translate(-19.927 -34.132)"/><path class="h" d="M20.481,42.459a2.206,2.206,0,0,1-.508-1.545v.162a2.2,2.2,0,0,0,.508,1.544l.083-.081Z" transform="translate(-19.973 -33.454)"/></g><path class="h" d="M42.514,31.429l-5.485,3.116.1.1,5.382-3.058A1.931,1.931,0,0,0,43.666,30h0A2.047,2.047,0,0,1,42.514,31.429Z" transform="translate(-18.267 -15.854)"/><path class="i" d="M22.768,17.671,44.219,29.859a2.047,2.047,0,0,1,1.153,1.428h0A1.928,1.928,0,0,0,44.219,29.7L22.768,17.511c-1.538-.873-2.8-.147-2.8,1.613v.162C19.973,17.524,21.23,16.8,22.768,17.671Z" transform="translate(-19.973 -17.14)"/></g></g></svg>