<svg xmlns="http://www.w3.org/2000/svg" width="16" height="16.323" viewBox="0 0 16 16.323">
  <g id="iconGoogle" transform="translate(0.05 0.018)">
    <path id="Path_25" data-name="Path 25" d="M279.939,224.758a9.6,9.6,0,0,0-.141-1.658h-7.7v3.143h4.408a3.778,3.778,0,0,1-1.631,2.48v2.039h2.63A7.97,7.97,0,0,0,279.939,224.758Z" transform="translate(-263.989 -216.427)" fill="#4285f4"/>
    <path id="Path_26" data-name="Path 26" d="M36.193,330.9a7.812,7.812,0,0,0,5.41-1.97l-2.63-2.039a4.95,4.95,0,0,1-7.359-2.588H28.9v2.1A8.162,8.162,0,0,0,36.193,330.9Z" transform="translate(-28.082 -314.593)" fill="#34a853"/>
    <path id="Path_27" data-name="Path 27" d="M3.529,155.227a4.888,4.888,0,0,1,0-3.125V150H.818a8.168,8.168,0,0,0,0,7.329Z" transform="translate(0 -145.52)" fill="#fbbc04"/>
    <path id="Path_28" data-name="Path 28" d="M36.193,3.212a4.435,4.435,0,0,1,3.131,1.224h0l2.33-2.33A7.844,7.844,0,0,0,36.193-.018,8.16,8.16,0,0,0,28.9,4.48l2.711,2.1A4.882,4.882,0,0,1,36.193,3.212Z" transform="translate(-28.082)" fill="#ea4335"/>
  </g>
</svg>
