<svg xmlns="http://www.w3.org/2000/svg" width="32" height="32" viewBox="0 0 32 32"><defs><style>.a{fill:#969696;}.b{fill:#fff;}</style></defs><g transform="translate(-688 -261)"><circle class="a" cx="16" cy="16" r="16" transform="translate(688 261)"/><path class="b" d="M1398.427,600.281h-7.775a5.143,5.143,0,0,1-5.137-5.137v-7.776a5.143,5.143,0,0,1,5.137-5.137h7.775a5.143,5.143,0,0,1,5.137,5.137v7.776A5.143,5.143,0,0,1,1398.427,600.281Zm-7.775-16.5a3.594,3.594,0,0,0-3.59,3.59v7.776a3.594,3.594,0,0,0,3.59,3.59h7.775a3.594,3.594,0,0,0,3.59-3.59v-7.776a3.594,3.594,0,0,0-3.59-3.59Z" transform="translate(-690.764 -314.481)"/><path class="b" d="M1428.644,629.982a4.622,4.622,0,1,1,4.622-4.622A4.627,4.627,0,0,1,1428.644,629.982Zm0-7.7a3.074,3.074,0,1,0,3.074,3.074A3.078,3.078,0,0,0,1428.644,622.286Z" transform="translate(-724.869 -348.586)"/><path class="b" d="M1499.1,609.823a1.111,1.111,0,1,1-1.111-1.111A1.111,1.111,0,0,1,1499.1,609.823Z" transform="translate(-789.39 -337.934)"/></g></svg>