<svg xmlns="http://www.w3.org/2000/svg" width="22" height="22" viewBox="0 0 22 22"><defs><style>.a{fill:#fe6565;}.b{fill:#ffb2b2;}</style></defs><g transform="translate(-592.35 -255)"><g transform="translate(592.35 255)"><path class="a" d="M9.066,252.645v-1.977a2.578,2.578,0,1,1,0-5.156v-1.934h-3.6l.307-.861a1.261,1.261,0,0,0,.074-.428,1.289,1.289,0,1,0-2.578,0,1.261,1.261,0,0,0,.074.428l.307.861H0A9.81,9.81,0,0,0,9.066,252.645Z" transform="translate(0 -230.645)"/><path class="a" d="M4.555,68.173a2.581,2.581,0,0,1,2.578,2.578H9.066v-3.6l.861.307a1.289,1.289,0,1,0,0-2.431l-.861.307V61.76A9.738,9.738,0,0,0,0,70.751H1.977a2.581,2.581,0,0,1,2.578-2.578Z" transform="translate(0 -59.106)"/><path class="a" d="M192.569,301h-1.9a2.578,2.578,0,0,1-5.156,0h-1.934v3.6l-.861-.307a1.289,1.289,0,1,0,0,2.431l.861-.307v3.646A9.738,9.738,0,0,0,192.569,301Z" transform="translate(-173.223 -288.066)"/><path class="b" d="M250.023,5.2V2.621h-2.578a2.578,2.578,0,1,0-5.156,0H241V4.555a2.578,2.578,0,0,1,0,5.156v1.934h3.6l-.307.861a1.262,1.262,0,0,0-.074.428,1.289,1.289,0,1,0,2.578,0,1.26,1.26,0,0,0-.074-.428l-.307-.861h3.6V10.355a2.618,2.618,0,0,0,2.621-2.578A2.618,2.618,0,0,0,250.023,5.2Z" transform="translate(-230.645)"/></g></g></svg>