<svg xmlns="http://www.w3.org/2000/svg" width="32" height="32" viewBox="0 0 32 32"><defs><style>.a{fill:#969696;}.b{fill:#fff;}</style></defs><g transform="translate(-613.966 -268.094)"><g transform="translate(613.966 268.094)"><path class="a" d="M629.966,300.094a16,16,0,1,1,16-16A16.018,16.018,0,0,1,629.966,300.094Z" transform="translate(-613.966 -268.094)"/></g><g transform="translate(613.966 268.094)"><g transform="translate(8.381 12.32)"><path class="b" d="M644.9,293.972v5.974a.267.267,0,0,1-.268.267h-3.084a.267.267,0,0,1-.267-.267V294.39c0-1.462-.522-2.46-1.833-2.46a1.979,1.979,0,0,0-1.856,1.323,2.466,2.466,0,0,0-.12.882v5.811a.267.267,0,0,1-.267.267h-3.083a.266.266,0,0,1-.267-.267c.007-1.48.038-8.659.006-10.346a.266.266,0,0,1,.267-.271h3.077a.267.267,0,0,1,.267.268v1.275c-.007.012-.018.024-.024.036h.024v-.036a3.593,3.593,0,0,1,3.261-1.8c2.381,0,4.166,1.556,4.166,4.9Zm-16.4,6.241h3.084a.267.267,0,0,0,.267-.267V289.6a.268.268,0,0,0-.267-.268h-3.084a.268.268,0,0,0-.267.268v10.349A.267.267,0,0,0,628.505,300.213Z" transform="translate(-628.238 -289.074)"/></g></g><g transform="translate(622.111 275.411)"><circle class="b" cx="1.937" cy="1.937" r="1.937" transform="translate(0 0)"/></g></g></svg>