<svg xmlns="http://www.w3.org/2000/svg" width="255" height="76.65" viewBox="0 0 255 76.65">
  <g id="nTask_Logo_Full" data-name="nTask Logo Full" transform="translate(0 -0.325)">
    <g id="Group_4929" data-name="Group 4929" transform="translate(0 0.325)">
      <path id="Path_1" data-name="Path 1" d="M66.226,3.419a20.931,20.931,0,0,0-3.181.044c-1.408.209-2.893.489-4.466.82a.182.182,0,0,0-.186.187A15.455,15.455,0,0,0,55.6,6.518a21.313,21.313,0,0,0-4.84,5.956c-1.3,2.606-.744,4.654.559,7.074,1.489,2.792,2.792,5.4,4.281,8.19,1.118,2.234,2.234,4.468,3.165,6.7a24.3,24.3,0,0,0,1.489-3.164c.744-1.862,1.675-3.723,2.606-5.585A19.019,19.019,0,0,1,64.35,22.9c.186-.372.558-.744.744-1.117A9.384,9.384,0,0,1,71.423,17.5a7.034,7.034,0,0,1,2.792,0,2.219,2.219,0,0,1,1.69,1.059V11.423C75.347,4.536,68.087,3.606,66.226,3.419Z" transform="translate(-3.122 -0.211)" fill="#009d6e"/>
      <path id="Path_2" data-name="Path 2" d="M88.42,6.745a11.563,11.563,0,0,0-6.7-5.212A35.194,35.194,0,0,0,65.9.416,28.852,28.852,0,0,0,55.472,3.953a31.071,31.071,0,0,1,4.451-.7A20.931,20.931,0,0,1,63.1,3.208c1.861.187,9.121,1.117,9.68,8V57.377c0,1.489-.744,2.048-2.234,2.048-3.909,0-6.7-1.489-8.562-5.026-2.606-5.77-5.4-11.541-8.191-17.312l-3.351-6.7c-1.675-3.537-3.537-6.887-5.4-10.424a8.637,8.637,0,0,1-.931-1.862c-1.862-3.351-3.723-6.887-6.515-9.307a27.139,27.139,0,0,0-13.4-5.77A34.812,34.812,0,0,0,8.376,4.139c-.372.186-.744.186-.93.372C1.861,6.932,0,11.585,0,17.542V60.728a20.442,20.442,0,0,0,.372,4.84,8.164,8.164,0,0,0,1.3,3.537,11.234,11.234,0,0,0,1.3,1.861l.186.187.372.372.559.559c2.438,1.9,6.265,3.491,12.107,4.007l.111.01a78.109,78.109,0,0,0,8.872-.041c.269-.028.538-.056.784-.061l.071-.007H24.386c-.187,0-.372-.187-.744-.187-.187,0-.373-.186-.745-.186H22.71c-.187,0-.372-.187-.559-.187h-.186c-.559-.372-1.118-.558-1.675-.93-2.234-1.675-2.979-5.026-3.164-7.446V21.637c.186-.93.744-1.3,1.861-1.489a7.069,7.069,0,0,1,2.792,0,9.386,9.386,0,0,1,6.33,4.281c.186.373.558.745.744,1.118a19.064,19.064,0,0,1,1.489,2.792c.931,1.861,1.675,3.723,2.606,5.584.558,1.3,1.3,2.606,1.861,3.723,1.675,3.351,3.164,6.7,4.84,9.865,1.489,3.165,3.164,6.515,4.653,9.68,1.675,3.351,3.351,6.7,4.84,10.053,3.351,6.887,9.681,8.935,16.94,9.307,10.424.558,16.194-1.3,19.545-4.1l.559-.559.372-.372.186-.187a10.767,10.767,0,0,0,2.792-6.887l.745-49.7A15.441,15.441,0,0,0,88.42,6.745Z" fill="#00cc90"/>
      <path id="Path_3" data-name="Path 3" d="M43.939,64.838a9.786,9.786,0,0,0-.744-3.164,18.009,18.009,0,0,1-.93-2.048c-.931-1.861-1.675-3.723-2.606-5.4-1.3-2.792-2.606-5.4-3.909-8.19-.372,0-.559.186-.559.372-.372.744-.931,1.489-1.3,2.233a46.971,46.971,0,0,1-2.42,4.1c-2.606,4.654-5.584,10.611-11.913,8.935a1.285,1.285,0,0,1-.931-.744c0-.187-.186-.559-.186-.744l-.172-2.275V69.93c.186,2.42.93,5.771,3.164,7.446.558.372,1.117.558,1.675.93h.186c.187,0,.372.187.559.187h.186c.372,0,.559.186.745.186.372,0,.558.187.744.187h1.655c.714-.065,1.334-.142,1.888-.225v0a18.044,18.044,0,0,0,13.554-9.5l.015-.023c.071-.142.14-.3.21-.443.055-.116.113-.23.166-.349.1-.213.184-.432.273-.653.034-.083.07-.163.1-.248h0a9.616,9.616,0,0,0,.551-2.029Z" transform="translate(-1.14 -2.874)" fill="#009d6e"/>
    </g>
    <g id="Group_1" data-name="Group 1" transform="translate(107.518 5.325)">
      <path id="Path_4" data-name="Path 4" d="M130.926,22.243V68.372H120.144V22.243h-12.47V12.961H143.4v9.282Z" transform="translate(-107.674 -7.804)"/>
      <path id="Path_5" data-name="Path 5" d="M171.014,33.58H181.14v36H171.014V64.9a12.827,12.827,0,0,1-11.063,5.813c-11.064,0-18.377-8.626-18.377-19.22s7.219-19.127,17.814-19.127c2.719,0,8.157.469,11.532,5.813V33.58ZM152.075,51.488c0,5.719,4.125,10.22,9.939,10.22s9.938-4.5,9.938-10.22a9.94,9.94,0,1,0-19.877,0Z" transform="translate(-109.79 -9.015)"/>
      <path id="Path_6" data-name="Path 6" d="M210.807,42.106a8.441,8.441,0,0,0-5.907-2.438c-2.438,0-3.938,1.125-3.938,2.906,0,.938.375,2.344,3.281,3.282l2.439.75c2.813.938,7.032,2.344,9.095,5.157a10.124,10.124,0,0,1,1.781,6,11.814,11.814,0,0,1-4.032,9.095A15.216,15.216,0,0,1,202.744,70.7a18.088,18.088,0,0,1-13.97-6l5.344-6.188a10.983,10.983,0,0,0,7.969,4.125c2.813,0,4.969-1.406,4.969-3.938,0-2.25-1.78-3.188-3.187-3.657l-2.344-.844c-2.531-.938-5.532-2.063-7.688-4.313a9.7,9.7,0,0,1-2.719-6.938,10.872,10.872,0,0,1,3.75-8.157c2.813-2.25,6.469-2.531,9.376-2.531a18,18,0,0,1,11.438,3.844Z" transform="translate(-112.736 -9.009)"/>
      <path id="Path_7" data-name="Path 7" d="M234.594,12.461V45.152L248,32.026h13.126L244.252,47.777,262.44,67.935H249.033L235.625,52.559,234.5,53.59V67.935H224.374V12.461Z" transform="translate(-114.958 -7.461)"/>
    </g>
  </g>
</svg>
