<svg id="svg2" xmlns="http://www.w3.org/2000/svg" xmlns:xlink="http://www.w3.org/1999/xlink" viewBox="0 0 250.05 81.75"><defs><style>.cls-1{fill:url(#linear-gradient);}.cls-2{fill:#80af45;}.cls-3{fill:url(#linear-gradient-2);}</style><linearGradient id="linear-gradient" x1="-524.52" y1="833.75" x2="-523.03" y2="833.75" gradientTransform="translate(13024.78 -20604.03) scale(24.74)" gradientUnits="userSpaceOnUse"><stop offset="0" stop-color="#7aa941"/><stop offset="0.01" stop-color="#7aa941"/><stop offset="1" stop-color="#487d3a"/></linearGradient><linearGradient id="linear-gradient-2" x1="18.27" y1="63.54" x2="45.65" y2="63.54" gradientTransform="matrix(1, 0, 0, 1, 0, 0)" xlink:href="#linear-gradient"/></defs><path class="cls-1" d="M67.3,3.42a22.57,22.57,0,0,0-3.39.05c-1.5.22-3.08.52-4.76.87a.2.2,0,0,0-.2.2,16.71,16.71,0,0,0-3,2.19,22.69,22.69,0,0,0-5.16,6.35c-1.39,2.78-.79,5,.6,7.54,1.58,3,3,5.76,4.56,8.74,1.19,2.38,2.38,4.77,3.38,7.15a27.08,27.08,0,0,0,1.59-3.38c.79-2,1.78-4,2.78-6a20.15,20.15,0,0,1,1.58-3c.2-.4.6-.8.8-1.19a10,10,0,0,1,6.75-4.57,7.48,7.48,0,0,1,3,0,2.37,2.37,0,0,1,1.8,1.13V12C77,4.61,69.29,3.62,67.3,3.42Z"/><path class="cls-2" d="M17.4,81.17a56.93,56.93,0,0,0,7.81.08,16.34,16.34,0,0,0,1.65-.13A84,84,0,0,1,17.4,81.17Z"/><path class="cls-2" d="M27.8,81.05h0Z"/><path class="cls-2" d="M27.7,81.06c-.26,0-.55,0-.84.06Z"/><path class="cls-2" d="M17.29,81.16h0Z"/><path class="cls-2" d="M94.31,7.19a12.35,12.35,0,0,0-7.15-5.55A37.57,37.57,0,0,0,70.28.44,30.81,30.81,0,0,0,59.16,4.22a32,32,0,0,1,4.75-.75,22.57,22.57,0,0,1,3.39-.05c2,.2,9.73,1.19,10.33,8.54V61.2c0,1.59-.8,2.18-2.38,2.18-4.17,0-7.15-1.59-9.14-5.36-2.78-6.15-5.75-12.31-8.73-18.46Q55.6,36,53.8,32.41C52,28.64,50,25.06,48.05,21.29a9.45,9.45,0,0,1-1-2c-2-3.58-4-7.35-6.94-9.93a29,29,0,0,0-14.3-6.16A37.32,37.32,0,0,0,8.93,4.41c-.39.2-.79.2-1,.4C2,7.39,0,12.36,0,18.71V64.77a21.62,21.62,0,0,0,.4,5.16A8.63,8.63,0,0,0,1.79,73.7a11.42,11.42,0,0,0,1.39,2l.2.2.39.4.6.59c2.6,2,6.68,3.72,12.91,4.28h.12a84,84,0,0,0,9.46,0c.29,0,.58-.06.84-.06H26c-.2,0-.4-.2-.8-.2-.19,0-.39-.2-.79-.2h-.2c-.2,0-.4-.19-.59-.19h-.2c-.6-.4-1.19-.6-1.79-1-2.38-1.78-3.18-5.36-3.37-7.94V23.08c.19-1,.79-1.39,2-1.59a7.48,7.48,0,0,1,3,0A10,10,0,0,1,30,26.06c.2.39.6.79.79,1.19a19.07,19.07,0,0,1,1.59,3c1,2,1.79,4,2.78,6,.6,1.39,1.39,2.78,2,4,1.78,3.58,3.37,7.15,5.16,10.52,1.59,3.38,3.37,6.95,5,10.33,1.79,3.57,3.58,7.15,5.16,10.72,3.58,7.35,10.33,9.53,18.07,9.93,11.12.59,17.27-1.39,20.85-4.37l.59-.6.4-.39.2-.2a11.55,11.55,0,0,0,3-7.35l.79-53A16.51,16.51,0,0,0,94.31,7.19Z"/><path class="cls-3" d="M45.65,66.09a10.34,10.34,0,0,0-.8-3.37,21.09,21.09,0,0,1-1-2.19c-1-2-1.79-4-2.78-5.76C39.69,51.8,38.3,49,36.91,46c-.39,0-.59.2-.59.39-.4.8-1,1.59-1.39,2.39-.8,1.39-1.59,3-2.58,4.37-2.78,5-6,11.31-12.71,9.53a1.37,1.37,0,0,1-1-.8c0-.2-.2-.59-.2-.79l-.18-2.43V71.52c.19,2.58,1,6.16,3.37,7.94.6.4,1.19.6,1.79,1h.2c.19,0,.39.19.59.19h.2c.4,0,.6.2.79.2.4,0,.6.2.8.2h1.76c.77-.07,1.43-.15,2-.24h0A19.21,19.21,0,0,0,44.24,70.68l0,0,.22-.48.18-.37c.1-.22.2-.46.29-.69s.08-.18.11-.27h0a10.33,10.33,0,0,0,.59-2.16Z"/><path d="M137.86,25.77V68.22h-9.94V25.77H116.45V17.21h32.88v8.56Z"/><path d="M172.05,35.1h9.33V68.22h-9.33V63.93a11.89,11.89,0,0,1-10.17,5.36c-10.18,0-16.91-8-16.91-17.67S151.63,34,161.42,34a12,12,0,0,1,10.63,5.35ZM154.61,51.62a9.18,9.18,0,1,0,18.36,0,9.18,9.18,0,1,0-18.36,0Z"/><path d="M205.24,43a7.74,7.74,0,0,0-5.43-2.22c-2.22,0-3.6,1.07-3.6,2.68,0,.84.39,2.14,3,3l2.21.69c2.61.84,6.51,2.14,8.42,4.74a9.65,9.65,0,0,1,1.68,5.51,11,11,0,0,1-3.67,8.41,13.9,13.9,0,0,1-9.94,3.52,16.71,16.71,0,0,1-12.85-5.51l4.89-5.66c1.84,2.14,4.59,3.83,7.34,3.83s4.59-1.3,4.59-3.6c0-2.06-1.68-2.9-2.9-3.36l-2.14-.77c-2.37-.84-5.13-1.91-7.12-4a8.86,8.86,0,0,1-2.52-6.34,9.85,9.85,0,0,1,3.44-7.5c2.6-2.06,6-2.37,8.64-2.37a16.55,16.55,0,0,1,10.56,3.52Z"/><path d="M224.36,12.46V47.19L236.75,35.1h12.08L233.31,49.63l16.74,18.59H237.67L225.35,54.07l-1,.92V68.22H215V12.46Z"/></svg>