<svg xmlns="http://www.w3.org/2000/svg" width="56" height="56" viewBox="0 0 56 56"><defs><style>.a{fill:#0f9dd8;stroke:#fff;stroke-width:3px;}.b,.c{fill:#fff;fill-rule:evenodd;}.b{opacity:0.7;}.d{stroke:none;}.e{fill:none;}</style></defs><g transform="translate(3 3)"><g class="a" transform="translate(0)"><circle class="d" cx="25" cy="25" r="25"/><circle class="e" cx="25" cy="25" r="26.5"/></g><g transform="translate(15 13.333)"><path class="b" d="M36.387,20.258a5.015,5.015,0,0,1,.663,4.228c-.846,4.31-3.742,5.8-7.439,5.8h-.572a.916.916,0,0,0-.906.769l-.046.25-.72,4.523-.037.193a.916.916,0,0,1-.907.769H23.293l1.439-9.114h1.929C31.982,27.677,35.335,25.11,36.387,20.258Z" transform="translate(-17.215 -13.376)"/><path class="c" d="M33.03,13.766a4.661,4.661,0,0,1,.995,4.183s-.046.28-.075.427c-.967,4.927-4.276,6.631-8.5,6.631H23.294a1.045,1.045,0,0,0-1.034.879l.035-.224-1.137,7.156H16.63a.627.627,0,0,1-.623-.722l3.054-19.216A1.049,1.049,0,0,1,20.1,12h7.334C29.962,12,31.937,12.53,33.03,13.766Z" transform="translate(-16 -12)"/></g></g></svg>