<svg xmlns="http://www.w3.org/2000/svg" width="579.952" height="256.799" viewBox="0 0 579.952 256.799"><defs><style>.a{fill:#45a2e8;}.b{fill:#79c5ff;}.c{fill:#80af45;}.d{fill:#b1e96b;}.e{fill:#fed641;}</style></defs><g transform="translate(-615.857 121.697)"><g transform="translate(639.839 74.075)"><rect class="a" width="77.286" height="61.027"/><path class="b" d="M706.13,45.344,628.844-15.684H706.13Z" transform="translate(-628.844 15.684)"/></g><g transform="translate(735.504 93.752)"><rect class="a" width="77.286" height="41.351"/><path class="b" d="M757.933,36.322,680.647-5.028h77.286Z" transform="translate(-680.647 5.028)"/></g><g transform="translate(831.169 75.762)"><rect class="a" width="77.286" height="59.341" transform="translate(0 0)"/><path class="b" d="M809.737,44.57,732.451-14.77h77.286Z" transform="translate(-732.451 14.77)"/></g><g transform="translate(1118.163 -24.229)"><rect class="c" width="77.286" height="159.331"/><path class="d" d="M965.149,90.415,887.863-68.917h77.286Z" transform="translate(-887.863 68.917)"/></g><g transform="translate(926.833 49.154)"><rect class="a" width="77.286" height="85.949"/><path class="b" d="M861.541,56.77,784.255-29.179h77.286Z" transform="translate(-784.255 29.179)"/></g><g transform="translate(1022.498 12.504)"><rect class="c" width="77.286" height="122.599"/><path class="d" d="M913.345,73.573l-77.286-122.6h77.286Z" transform="translate(-836.059 49.025)"/></g><g transform="translate(615.857 -121.697)"><g transform="translate(528.356)"><path class="e" d="M907.688-105.939H905.7v-12.186a6.843,6.843,0,0,1-3.732.8v-1.564q3.648,0,4.186-2.811h1.533Z" transform="translate(-901.969 121.697)"/><path class="e" d="M912.756-121.7q5.052,0,5.053,8.033,0,7.989-5.053,7.989t-5.041-7.989Q907.715-121.7,912.756-121.7Zm0,14.458a2.411,2.411,0,0,0,2.231-1.416,11.573,11.573,0,0,0,.761-5.008,11.73,11.73,0,0,0-.761-5.036,2.412,2.412,0,0,0-2.231-1.433,2.4,2.4,0,0,0-2.22,1.433,11.732,11.732,0,0,0-.761,5.036,11.575,11.575,0,0,0,.761,5.008A2.4,2.4,0,0,0,912.756-107.239Z" transform="translate(-897.104 121.697)"/><path class="e" d="M919.275-121.7q5.05,0,5.051,8.033,0,7.989-5.051,7.989t-5.041-7.989Q914.234-121.7,919.275-121.7Zm0,14.458a2.408,2.408,0,0,0,2.229-1.416,11.545,11.545,0,0,0,.761-5.008,11.7,11.7,0,0,0-.761-5.036,2.409,2.409,0,0,0-2.229-1.433,2.4,2.4,0,0,0-2.22,1.433,11.7,11.7,0,0,0-.761,5.036,11.542,11.542,0,0,0,.761,5.008A2.4,2.4,0,0,0,919.275-107.239Z" transform="translate(-891.585 121.697)"/><path class="e" d="M924.473-121.7a3.266,3.266,0,0,1,2.541,1.1,4.34,4.34,0,0,1,.988,3.012,4.345,4.345,0,0,1-.988,3.014,3.266,3.266,0,0,1-2.541,1.1,3.236,3.236,0,0,1-2.532-1.1,4.378,4.378,0,0,1-.977-3.014,4.373,4.373,0,0,1,.977-3.012A3.236,3.236,0,0,1,924.473-121.7Zm0,6.923q1.839,0,1.839-2.812t-1.839-2.811q-1.817,0-1.819,2.811T924.473-114.774Zm9.734-6.659-8.456,15.494h-1.542l8.465-15.494Zm-.255,7.525a3.256,3.256,0,0,1,2.543,1.1,4.352,4.352,0,0,1,.988,3.006,4.368,4.368,0,0,1-.988,3.017,3.256,3.256,0,0,1-2.543,1.1,3.229,3.229,0,0,1-2.53-1.1,4.387,4.387,0,0,1-.979-3.023,4.373,4.373,0,0,1,.979-3.012A3.229,3.229,0,0,1,933.952-113.908Zm0,6.932q1.839,0,1.839-2.822t-1.839-2.811q-1.817,0-1.817,2.811T933.952-106.975Z" transform="translate(-885.886 121.697)"/></g><circle class="e" cx="5.901" cy="5.901" r="5.901" transform="translate(0 146.857)"/><path class="e" d="M672.336-66.8,666.3-61.262l-16.269,14.9L621.521-20.242a5.89,5.89,0,0,1,2.628,2.175l29.366-26.9,16.269-14.9,6.111-5.6A9.4,9.4,0,0,1,672.336-66.8Z" transform="translate(-611.061 168.181)"/><path class="e" d="M710.329-34.2a7.411,7.411,0,0,1,3.069-1.717l-.735-.419-10.755-6.124L658.886-66.95l-1.1-.626a6.035,6.035,0,0,1-2.547,2.015l.781.445,43.02,24.494L709.8-34.5Z" transform="translate(-582.511 167.52)"/><path class="e" d="M770.616-83.819l-.881.687L707.286-34.4,691.412-22.009a6.779,6.779,0,0,1,2.883,1.871l16.293-12.714,62.451-48.736.861-.672A8.2,8.2,0,0,1,770.616-83.819Z" transform="translate(-551.886 153.767)"/><path class="e" d="M810.98-35.04a8.442,8.442,0,0,1,3.363-1.514L812.779-37.6l-13.311-8.89L765.242-69.34,748.13-80.765l-4.853-3.241a7.349,7.349,0,0,1-3.041,1.73l4.8,3.2,17.113,11.425L796.369-44.8l13.313,8.888Z" transform="translate(-510.548 153.609)"/><circle class="e" cx="5.901" cy="5.901" r="5.901" transform="translate(378.051 74.432)"/><path class="e" d="M792.054-54.93a5.9,5.9,0,0,1-5.9,5.9,5.9,5.9,0,0,1-5.9-5.9,5.9,5.9,0,0,1,5.9-5.9A5.9,5.9,0,0,1,792.054-54.93Z" transform="translate(-476.668 173.231)"/><path class="e" d="M746.6-81.244a5.9,5.9,0,0,1-5.9,5.9,5.9,5.9,0,0,1-5.9-5.9,5.9,5.9,0,0,1,5.9-5.9A5.9,5.9,0,0,1,746.6-81.244Z" transform="translate(-515.151 150.952)"/><circle class="e" cx="5.901" cy="5.901" r="5.901" transform="translate(129.377 126.692)"/><path class="e" d="M661.223-65.115a5.9,5.9,0,0,1-5.9,5.9,5.9,5.9,0,0,1-5.9-5.9,5.9,5.9,0,0,1,5.9-5.9A5.9,5.9,0,0,1,661.223-65.115Z" transform="translate(-587.439 164.606)"/><path class="c" d="M898.943-71.129l-70.958-8.7a2.892,2.892,0,0,1-.56,2.5l70.925,8.7,1.915.166a3.238,3.238,0,0,1,.986-2.462Z" transform="translate(-436.728 157.149)"/><path class="c" d="M874.112-77.356a5.9,5.9,0,0,1,5.18,6.543,5.9,5.9,0,0,1-6.541,5.18,5.9,5.9,0,0,1-5.182-6.543A5.9,5.9,0,0,1,874.112-77.356Z" transform="translate(-402.772 159.206)"/><path class="c" d="M949.127-107.228l-1.571.375-1.784.427,1.1.526-.242.183L873.737-50.256c.087.031.161.07.246.1a7,7,0,0,1,2.966,1.594l73.021-55.557.242-.185,1.1.526.282-1.145.246-1.01.508-2.065Z" transform="translate(-397.516 133.299)"/><path class="e" d="M846.563-78.02l-9.512,5.867-35.7,22.018L787.47-41.572l-1.356.835a6.271,6.271,0,0,1,2.709,1.935l1.631-1.006,13.885-8.563,35.7-22.018,9.453-5.83A6.248,6.248,0,0,1,846.563-78.02Z" transform="translate(-471.704 158.677)"/></g></g></svg>