<svg xmlns="http://www.w3.org/2000/svg" width="22" height="22.186" viewBox="0 0 22 22.186"><defs><style>.a{fill:#31d47d;}</style></defs><g transform="translate(-514.35 -257)"><g transform="translate(514.156 257)"><path class="a" d="M22.194,11.513a4.508,4.508,0,0,1-4.5,4.5,2.161,2.161,0,0,1-2.161-2.161V9.172A2.159,2.159,0,0,1,16.814,7.2a5.815,5.815,0,0,0-11.239,0A2.158,2.158,0,0,1,6.857,9.172v4.682a2.158,2.158,0,0,1-1.635,2.089A6.809,6.809,0,0,0,9.157,19.2a2.2,2.2,0,1,1-.137.958,7.77,7.77,0,0,1-4.844-4.176,4.5,4.5,0,0,1-1.6-8.44,8.693,8.693,0,0,1,17.233,0A4.5,4.5,0,0,1,22.194,11.513Z"/></g></g></svg>