<svg xmlns="http://www.w3.org/2000/svg" width="31.535" height="24.784" viewBox="0 0 31.535 24.784"><defs><style>.a,.b{fill:#00e30f;fill-rule:evenodd;}.b{opacity:0.43;}</style></defs><g transform="translate(-391.273 -187.837)"><path class="a" d="M313.241,399.527H283.956a1.148,1.148,0,0,0-1.125,1.128v4.5a1.143,1.143,0,0,0,1.125,1.125h29.285a1.141,1.141,0,0,0,1.125-1.125v-4.5A1.146,1.146,0,0,0,313.241,399.527Zm-1.125,4.506H300.853V401.78h11.263Z" transform="translate(108.442 -193.664)"/><path class="a" d="M314.031,387.384v-.006a1.088,1.088,0,0,0-.791-.334H283.956a1.144,1.144,0,0,0-1.125,1.125v4.513a1.143,1.143,0,0,0,1.125,1.125h29.285a1.141,1.141,0,0,0,1.125-1.125v-4.509A1.083,1.083,0,0,0,314.031,387.384Zm-1.924,4.159h-6.756V389.3h6.756Z" transform="translate(108.442 -199.208)"/><path class="b" d="M313.241,393.29H283.956a1.144,1.144,0,0,0-1.125,1.125v4.5a1.142,1.142,0,0,0,1.125,1.128h29.287a1.14,1.14,0,0,0,1.124-1.128v-4.509a1.142,1.142,0,0,0-1.124-1.125Zm-1.128,4.5H294.1v-2.251h18.01v2.251Z" transform="translate(108.442 -196.436)"/></g></svg>