<svg xmlns="http://www.w3.org/2000/svg" width="35.725" height="28.926" viewBox="0 0 35.725 28.926"><defs><style>.a{fill:#15b5de;}.a,.b,.c{fill-rule:evenodd;}.b{fill:#fff;}.c{fill:#17d0ff;}</style></defs><g transform="translate(-645.016 -185.494)"><path class="a" d="M321.962,382.2h-24.5a2.656,2.656,0,0,0-2.647,2.644v15.2a2.654,2.654,0,0,0,2.647,2.643h16.9l3.825,3.849a.812.812,0,0,0,.587.263.841.841,0,0,0,.85-.831v-3.278h2.353a2.654,2.654,0,0,0,2.647-2.643v-15.2A2.657,2.657,0,0,0,321.962,382.2Z" transform="translate(356.122 -196.708)"/><path class="b" d="M301.022,394.889a2.447,2.447,0,1,1,2.45-2.447,2.446,2.446,0,0,1-2.45,2.447Z" transform="translate(356.313 -196.312)"/><path class="b" d="M309.2,394.889a2.45,2.45,0,1,1,.005,0Z" transform="translate(356.728 -196.312)"/><path class="b" d="M317.352,394.89a2.456,2.456,0,1,0-.009,0Z" transform="translate(357.141 -196.313)"/><path class="c" d="M293.591,399.493v-5.18h-2.679a1.742,1.742,0,0,0-1.731,1.73v9.982a1.716,1.716,0,0,0,1.646,1.785c.028,0,.057,0,.085,0h1.536v2.147a.574.574,0,0,0,.556.556.535.535,0,0,0,.393-.164l2.515-2.511h11.113a1.743,1.743,0,0,0,1.731-1.73V403.63H297.748a4.151,4.151,0,0,1-4.159-4.136Z" transform="translate(355.836 -196.093)"/></g></svg>