<svg xmlns="http://www.w3.org/2000/svg" width="27.349" height="31.685" viewBox="0 0 27.349 31.685"><defs><style>.a{fill:#808dff;}.a,.b,.c,.d{fill-rule:evenodd;}.b{fill:#dfe2fc;}.c{fill:#3a4df5;}.d{fill:#fff;}</style></defs><g transform="translate(-733.667 -184.713)"><path class="a" d="M280.5,388.924a3.066,3.066,0,0,0-4.785,3.61A14.912,14.912,0,0,1,280.5,388.924Z" transform="translate(460.521 -199.639)"/><path class="a" d="M287.529,417.215a13.72,13.72,0,0,0,2.321-27.234v-2.572h1.19a.977.977,0,0,0,0-1.879h-7.022a.977.977,0,0,0,0,1.879h1.19v2.571a13.72,13.72,0,0,0,2.322,27.234Z" transform="translate(459.818 -200.817)"/><path class="b" d="M278.738,393.46a11.422,11.422,0,1,1,.064,16.152c-.2-.192-.383-.393-.563-.6A11.441,11.441,0,0,1,278.738,393.46Z" transform="translate(460.522 -198.795)"/><path class="c" d="M279.426,407.855a9.939,9.939,0,0,0,1.444,1.19,9.113,9.113,0,0,0,.807.484,9.724,9.724,0,0,0,4.643,1.176c.209,0,.417-.007.624-.019a9.7,9.7,0,0,0,2.948-.657,10.025,10.025,0,0,0,1.072-.5c.276-.144.542-.315.807-.484a9.74,9.74,0,0,0,0-16.152,8.469,8.469,0,0,0-.807-.484,9.646,9.646,0,0,0-4.019-1.155c-.2-.019-.414-.027-.63-.027a9.678,9.678,0,0,0-4.643,1.177c-.276.144-.544.313-.807.484a9.744,9.744,0,0,0-1.437,14.967Z" transform="translate(461.027 -198.286)"/><path class="d" d="M285.676,392.605v7.3l-7.335,2.818a7.917,7.917,0,0,1,7.335-10.116Z" transform="translate(461.674 -197.675)"/></g></svg>