<svg xmlns="http://www.w3.org/2000/svg" width="35.775" height="30.347" viewBox="0 0 35.775 30.347"><defs><style>.a{fill:#ff9c9c;}.b{fill:#ff5b5b;}</style></defs><g transform="translate(-815.945 -185.494)"><g transform="translate(843.789 201.878)"><path class="a" d="M401.261,273.32h-2.767a7.2,7.2,0,0,1,.436,2.474V286.25a3.081,3.081,0,0,1-.178,1.033h4.574a3.1,3.1,0,0,0,3.1-3.1v-5.7A5.17,5.17,0,0,0,401.261,273.32Z" transform="translate(-398.494 -273.32)"/></g><g transform="translate(815.945 201.878)"><path class="a" d="M7.495,275.795a7.2,7.2,0,0,1,.436-2.474H5.164A5.17,5.17,0,0,0,0,278.485v5.7a3.1,3.1,0,0,0,3.1,3.1H7.673a3.085,3.085,0,0,1-.178-1.033Z" transform="translate(0 -273.321)"/></g><g transform="translate(825.506 199.188)"><g transform="translate(0 0)"><path class="b" d="M148.318,234.815h-6.325a5.17,5.17,0,0,0-5.164,5.164v10.457a1.033,1.033,0,0,0,1.033,1.033H152.45a1.033,1.033,0,0,0,1.033-1.033V239.979A5.17,5.17,0,0,0,148.318,234.815Z" transform="translate(-136.829 -234.815)"/></g></g><g transform="translate(827.622 185.494)"><path class="b" d="M173.325,38.84a6.21,6.21,0,1,0,6.211,6.211A6.218,6.218,0,0,0,173.325,38.84Z" transform="translate(-167.114 -38.84)"/></g><g transform="translate(818.282 191.283)"><path class="a" d="M38.088,121.689a4.643,4.643,0,1,0,4.645,4.645A4.65,4.65,0,0,0,38.088,121.689Z" transform="translate(-33.443 -121.689)"/></g><g transform="translate(840.094 191.283)"><path class="a" d="M350.252,121.689a4.645,4.645,0,1,0,4.645,4.645A4.65,4.65,0,0,0,350.252,121.689Z" transform="translate(-345.607 -121.689)"/></g></g></svg>