<svg xmlns="http://www.w3.org/2000/svg" width="31.752" height="27.443" viewBox="0 0 31.752 27.443"><defs><style>.a{fill:#f2ba00;}</style></defs><g transform="translate(-903.034 -186.275)"><g transform="translate(903.034 186.275)"><g transform="translate(0)"><path class="a" d="M32.131,22.653,21.054,4.283a4.954,4.954,0,0,0-8.347,0L1.63,22.653a4.333,4.333,0,0,0-.072,4.333A4.867,4.867,0,0,0,5.8,29.44H27.957a4.867,4.867,0,0,0,4.246-2.4,4.333,4.333,0,0,0-.072-4.39ZM16.88,23.664a1.444,1.444,0,1,1,1.444-1.444A1.444,1.444,0,0,1,16.88,23.664Zm1.444-5.777a1.444,1.444,0,0,1-2.888,0V12.11a1.444,1.444,0,0,1,2.888,0Z" transform="translate(-1.013 -1.997)"/></g></g><g transform="translate(903.034 186.275)"><g transform="translate(0 0)"><g transform="translate(0)"><path class="a" d="M32.131,22.653,21.054,4.283a4.954,4.954,0,0,0-8.347,0L1.63,22.653a4.333,4.333,0,0,0-.072,4.333A4.867,4.867,0,0,0,5.8,29.44H27.957a4.867,4.867,0,0,0,4.246-2.4,4.333,4.333,0,0,0-.072-4.39ZM16.88,23.664a1.444,1.444,0,1,1,1.444-1.444A1.444,1.444,0,0,1,16.88,23.664Zm1.444-5.777a1.444,1.444,0,0,1-2.888,0V12.11a1.444,1.444,0,0,1,2.888,0Z" transform="translate(-1.013 -1.997)"/></g></g></g></g></svg>