<svg xmlns="http://www.w3.org/2000/svg" width="56" height="56" viewBox="0 0 56 56"><defs><style>.a{fill:#fec22d;stroke:#fff;stroke-width:3px;}.b{fill:#fff;}.c{stroke:none;}.d{fill:none;}</style></defs><g transform="translate(3 3)"><g class="a" transform="translate(0)"><circle class="c" cx="25" cy="25" r="25"/><circle class="d" cx="25" cy="25" r="26.5"/></g><path class="b" d="M157.141,0c-.925,0-1.661.517-1.661,1.146l.562,6.362a1.23,1.23,0,0,0,2.2,0l.565-6.362c0-.629-.737-1.146-1.664-1.146Zm-9.156,5.1a1.784,1.784,0,0,0-1.373.977c-.464.8-.382,1.7.161,2.011l5.79,2.7a1.045,1.045,0,0,0,1.137-.613h0a1.038,1.038,0,0,0-.037-1.293l-5.229-3.668a.845.845,0,0,0-.449-.11Zm18.312,0a.842.842,0,0,0-.448.11l-5.23,3.668a1.042,1.042,0,0,0-.037,1.293h0a1.045,1.045,0,0,0,1.137.613l5.793-2.7c.545-.314.624-1.21.162-2.011A1.789,1.789,0,0,0,166.3,5.1ZM152.78,13.5a.586.586,0,0,0-.216.036l-5.79,2.693c-.543.315-.625,1.211-.161,2.013s1.278,1.18,1.822.866l5.23-3.665a1.041,1.041,0,0,0,.037-1.3h0a1.186,1.186,0,0,0-.924-.65Zm8.726,0a1.187,1.187,0,0,0-.924.65h0a1.046,1.046,0,0,0,.037,1.3l5.23,3.665c.542.314,1.359-.067,1.824-.866s.383-1.7-.162-2.013l-5.791-2.693a.586.586,0,0,0-.215-.036Zm-4.365,2.637a1.037,1.037,0,0,0-1.1.677l-.562,6.362c0,.63.735,1.146,1.661,1.146s1.664-.516,1.664-1.146l-.563-6.362a1.04,1.04,0,0,0-1.1-.677h0Z" transform="translate(-132.143 12.5)"/></g></svg>